<svg width="43" height="43" viewBox="0 0 43 43" fill="none" xmlns="http://www.w3.org/2000/svg">
<path fill-rule="evenodd" clip-rule="evenodd" d="M26.8741 12.5417H30.4574V21.4855L30.4574 21.5L30.4574 21.5138C30.4581 25.9291 30.7984 26.875 32.2491 26.875C34.586 26.875 35.8324 25.7698 35.8324 21.5C35.8324 12.0233 31.0792 7.16668 21.4993 7.16668C15.2929 7.16746 9.79208 11.1626 7.8714 17.0643C5.95071 22.966 8.04656 29.4334 13.0637 33.0869C18.0809 36.7403 24.8794 36.7496 29.9066 33.11L32.008 36.0125C25.724 40.562 17.2258 40.5504 10.9544 35.9836C4.68293 31.4168 2.06311 23.3325 4.46397 15.9554C6.86483 8.57821 13.7408 3.58432 21.4991 3.58334C33.0757 3.58334 39.4157 10.0613 39.4157 21.5C39.4157 27.8512 36.4754 30.4583 32.2491 30.4583C29.8413 30.4583 28.4634 29.682 27.7069 27.9587C26.0967 29.5067 23.9091 30.4583 21.4991 30.4583C16.5515 30.4583 12.5408 26.4475 12.5408 21.5C12.5408 16.5524 16.5515 12.5417 21.4991 12.5417C23.5158 12.5417 25.3769 13.2081 26.8741 14.3327V12.5417ZM26.8741 21.5C26.8741 24.4685 24.4676 26.875 21.4991 26.875C18.5306 26.875 16.1241 24.4685 16.1241 21.5C16.1241 18.5315 18.5306 16.125 21.4991 16.125C24.4676 16.125 26.8741 18.5315 26.8741 21.5Z" fill="black"/>
</svg>
