<svg width="43" height="43" viewBox="0 0 43 43" fill="none" xmlns="http://www.w3.org/2000/svg">
<path fill-rule="evenodd" clip-rule="evenodd" d="M7.16665 3.58334H35.8333C37.8123 3.58334 39.4166 5.18766 39.4166 7.16668V35.8333C39.4166 37.8124 37.8123 39.4167 35.8333 39.4167H7.16665C5.18763 39.4167 3.58331 37.8124 3.58331 35.8333V7.16668C3.58331 5.18766 5.18763 3.58334 7.16665 3.58334ZM7.16665 7.1667V35.8334H35.8333V7.1667H7.16665ZM19.9467 21.5079H23.2916V32.25H26.875V21.5079H30.4268V17.9246H26.875V16.125C26.875 15.1355 27.6771 14.3334 28.6666 14.3334H30.4583V10.75H28.6666C25.6981 10.75 23.2916 13.1565 23.2916 16.125V17.9246H19.9467V21.5079Z" fill="black"/>
</svg>
