<svg width="43" height="43" viewBox="0 0 43 43" fill="none" xmlns="http://www.w3.org/2000/svg">
<path fill-rule="evenodd" clip-rule="evenodd" d="M28.6666 3.58334H14.3333C8.39625 3.58334 3.58331 8.39628 3.58331 14.3333V28.6667C3.58331 34.6037 8.39625 39.4167 14.3333 39.4167H28.6666C34.6037 39.4167 39.4166 34.6037 39.4166 28.6667V14.3333C39.4166 8.39628 34.6037 3.58334 28.6666 3.58334ZM7.16664 14.3334C7.16664 10.3753 10.3753 7.1667 14.3333 7.1667H28.6666C32.6247 7.1667 35.8333 10.3753 35.8333 14.3334V28.6667C35.8333 32.6247 32.6247 35.8334 28.6666 35.8334H14.3333C10.3753 35.8334 7.16664 32.6247 7.16664 28.6667V14.3334ZM21.5 30.4584C16.5524 30.4584 12.5416 26.4476 12.5416 21.5C12.5416 16.5525 16.5524 12.5417 21.5 12.5417C26.4475 12.5417 30.4583 16.5525 30.4583 21.5C30.4583 26.4476 26.4475 30.4584 21.5 30.4584ZM21.5 26.875C24.4685 26.875 26.875 24.4686 26.875 21.5C26.875 18.5315 24.4685 16.125 21.5 16.125C18.5314 16.125 16.125 18.5315 16.125 21.5C16.125 24.4686 18.5314 26.875 21.5 26.875ZM32.25 12.5417C32.25 13.5312 31.4478 14.3334 30.4583 14.3334C29.4688 14.3334 28.6666 13.5312 28.6666 12.5417C28.6666 11.5522 29.4688 10.75 30.4583 10.75C31.4478 10.75 32.25 11.5522 32.25 12.5417Z" fill="black"/>
</svg>
